# xmcd CD database file
#
# Track frame offsets:
#	150
#	18515
#	38148
#	70088
#	87263
#	108918
#	132690
#	155763
#	175872
#	196260
#	220710
#
# Disc length: 3315 seconds
#
# Revision: 0
# Processed by: cddbd v1.5.2PL0 Copyright (c) Steve Scherf et al.
# Submitted via: CDex 1.70beta2
#
DISCID=950cf10b
DTITLE=Mike Zito - Superman
DYEAR=2006
DGENRE=Blues
TTITLE0=Superman
TTITLE1=No Big City
TTITLE2=Hey Joe
TTITLE3=I'd Rather Be Blind
TTITLE4=Deep Down In Love
TTITLE5=Y Bar Skank
TTITLE6=Love Like This (Song for Zach) 
TTITLE7=Today
TTITLE8=Everybody Wants To Rule The World
TTITLE9=Time To Go Home
TTITLE10=Superman (Extended Version)
EXTD=YEAR: 2006
EXTT0=
EXTT1=
EXTT2=
EXTT3=
EXTT4=
EXTT5=
EXTT6=
EXTT7=
EXTT8=
EXTT9=
EXTT10=
PLAYORDER=
